# xmcd
#
# Track frame offsets: 
#        150
#        29778
#        55359
#        71215
#        83065
#        95631
#        113624
#        134058
#        148215
#
# Disc length: 2258 seconds
#
# Revision: 0
# Processed by: cddbd v1.5.2PL0 Copyright (c) Steve Scherf et al.
# Submitted via: ExactAudioCopy v1.0b1
#
DISCID=8e08d009
DTITLE=Pierce Arrow - All Country
DYEAR=2000
DGENRE=Country
TTITLE0=Love My Music
TTITLE1=God Bless Texas
TTITLE2=Country Medley
TTITLE3=I'm Not Supposed To Love You
TTITLE4=I'll Go To My Grave
TTITLE5=Super Love
TTITLE6=Cowboy Medley
TTITLE7=Lovin' Feelin'
TTITLE8=It's Alright
EXTD=
EXTT0=
EXTT1=
EXTT2=
EXTT3=
EXTT4=
EXTT5=
EXTT6=
EXTT7=
EXTT8=
PLAYORDER=
